<svg xmlns="http://www.w3.org/2000/svg" viewBox="0 0 24 38.587">
  <defs>
    <style>
      .cls-1 {
        fill: #454f63;
      }
    </style>
  </defs>
  <g id="noun_101866_cc" transform="translate(82.805 -120)">
    <path id="Path_342" data-name="Path 342" class="cls-1" d="M35.619,5.779c0,.429.043,1.244,0,1.672a.334.334,0,0,0,.257.386,4.49,4.49,0,0,1,2.744,3.731,4.35,4.35,0,0,1-.943,3.216.594.594,0,0,0-.129.729c1.2,3.259,2.4,6.475,3.6,9.734.086.257.214.343.515.343h2.959A1.434,1.434,0,0,1,46.167,27a1.531,1.531,0,0,1-1.587,1.587H42.394a1.536,1.536,0,0,0,.172.472c1.2,3.173,2.358,6.389,3.559,9.605a.965.965,0,0,1,.043.6c-.429,1.415-.858,2.787-1.372,4.331-.086-.257-3.816-9.905-5.574-14.622a.509.509,0,0,0-.557-.386c-.986.043-1.93,0-2.959,0v.6a1.5,1.5,0,0,1-2.959.429,3.845,3.845,0,0,1-.086-1.029H29.744a.509.509,0,0,0-.557.386c-1.758,4.674-5.489,14.365-5.574,14.579-.086-.172-.986-2.959-1.372-4.245a1.251,1.251,0,0,1,.043-.686c1.158-3.216,2.358-6.389,3.516-9.605.043-.129.086-.257.129-.429H23.741A1.48,1.48,0,0,1,22.2,27.219a1.464,1.464,0,0,1,1.587-1.587h2.787a.653.653,0,0,0,.729-.472c1.158-3.216,2.358-6.389,3.516-9.605a.588.588,0,0,0-.043-.643A4.47,4.47,0,0,1,32.36,7.923c.257-.129.386-.257.343-.557-.043-.257,0-1.286,0-1.544C32.617,4.75,35.576,4.75,35.619,5.779Zm2.187,19.853c-.043-.172-2.23-5.96-3.3-8.7-.086-.172-.086-.386-.386-.386s-.3.214-.386.386c-1.029,2.659-3.216,8.4-3.3,8.662h2.23a6.918,6.918,0,0,1,0-.943,1.468,1.468,0,0,1,2.316-.943,1.771,1.771,0,0,1,.643,1.415v.515ZM34.118,13.54a1.587,1.587,0,0,0,1.544-1.5,1.522,1.522,0,0,0-3.044,0A1.465,1.465,0,0,0,34.118,13.54Z" transform="translate(-105 114.988)"/>
  </g>
</svg>
